<?xml version="1.0" encoding="UTF-8"?>
<!DOCTYPE svg PUBLIC "-//W3C//DTD SVG 1.1//EN" "http://www.w3.org/Graphics/SVG/1.1/DTD/svg11.dtd">
<!-- Creator: CorelDRAW (Versão de avaliação) -->
<svg xmlns="http://www.w3.org/2000/svg" xml:space="preserve" width="55.9001mm" height="57.2021mm" version="1.1" style="shape-rendering:geometricPrecision; text-rendering:geometricPrecision; image-rendering:optimizeQuality; fill-rule:evenodd; clip-rule:evenodd"
viewBox="0 0 1393.01 1425.45"
 xmlns:xlink="http://www.w3.org/1999/xlink"
 xmlns:xodm="http://www.corel.com/coreldraw/odm/2003">
 <defs>
  <style type="text/css">
   <![CDATA[
    .fil0 {fill:white}
   ]]>
  </style>
 </defs>
 <g id="Layer_x0020_1">
  <metadata id="CorelCorpID_0Corel-Layer"/>
  <g id="_322369888">
   <path class="fil0" d="M562.77 801.46l-56.63 56.63 -330.31 -194.68 0 -413.69 -175.84 93.33 0 369.68 0 46.86 225.42 95.13c18.89,-16.3 43.5,-26.15 70.41,-26.15 5.27,0 10.44,0.38 15.5,1.11 50.71,6.08 90.28,48.33 92.2,100.2l291.48 123.01 211.08 -128.28 -573.39 -342.61 0 -176.46 313.63 -170.28 0 -235.27 -298.08 158.21 -102.36 54.33 0 393.79 316.89 195.13z"/>
   <path class="fil0" d="M746.68 238.79l296.86 157.41c12.9,-5.46 27.09,-8.48 41.98,-8.48 52.37,0 96.02,37.33 105.8,86.84l201.68 106.94 0 -238.46 -348.25 -184.84 -298.07 -158.2 0 238.79z"/>
   <polygon class="fil0" points="1203.56,596.25 1203.56,1182.95 1393.01,1082.41 1393.01,712.73 1393.01,680.06 "/>
   <path class="fil0" d="M1124.95 1224.68l0 -628.67c-12.21,4.8 -25.51,7.43 -39.43,7.43 -59.32,0 -107.46,-47.9 -107.84,-107.13l-279.68 -123.75 -211.08 128.28 573.39 342.61 0 176.46 -313.63 170.28 0 235.27 298.07 -158.2 80.2 -42.57z"/>
   <path class="fil0" d="M646.32 1186.99l-304.78 -152.86c-13.88,6.51 -29.37,10.15 -45.71,10.15 -52.1,0 -95.58,-36.95 -105.65,-86.07l-190.17 -95.38 0 219.58 348.25 184.84 298.07 158.21 0 -238.46z"/>
  </g>
 </g>
</svg>
