<?xml version="1.0" encoding="UTF-8"?>
<!DOCTYPE svg PUBLIC "-//W3C//DTD SVG 1.1//EN" "http://www.w3.org/Graphics/SVG/1.1/DTD/svg11.dtd">
<!-- Creator: CorelDRAW (Versão de avaliação) -->
<svg xmlns="http://www.w3.org/2000/svg" xml:space="preserve" width="55.9001mm" height="57.2021mm" version="1.1" style="shape-rendering:geometricPrecision; text-rendering:geometricPrecision; image-rendering:optimizeQuality; fill-rule:evenodd; clip-rule:evenodd"
viewBox="0 0 828.66 847.97"
 xmlns:xlink="http://www.w3.org/1999/xlink"
 xmlns:xodm="http://www.corel.com/coreldraw/odm/2003">
 <defs>
  <style type="text/css">
   <![CDATA[
    .fil0 {fill:#2D2A2B}
   ]]>
  </style>
 </defs>
 <g id="Layer_x0020_1">
  <metadata id="CorelCorpID_0Corel-Layer"/>
  <g id="_1016191912">
   <path class="fil0" d="M334.78 476.77l-33.69 33.69 -196.49 -115.81 0 -246.09 -104.6 55.52 0 219.91 0 27.88 134.1 56.59c11.24,-9.69 25.88,-15.56 41.88,-15.56 3.13,0 6.21,0.23 9.22,0.66 30.16,3.62 53.71,28.75 54.85,59.61l173.39 73.17 125.56 -76.31 -341.1 -203.81 0 -104.97 186.57 -101.3 0 -139.96 -177.32 94.11 -60.89 32.32 0 234.26 188.51 116.08z"/>
   <path class="fil0" d="M444.18 142.05l176.6 93.64c7.68,-3.25 16.12,-5.04 24.97,-5.04 31.16,0 57.12,22.21 62.94,51.66l119.97 63.61 0 -141.85 -207.17 -109.96 -177.31 -94.11 0 142.05z"/>
   <polygon class="fil0" points="715.97,354.69 715.97,703.71 828.66,643.9 828.66,423.98 828.66,404.55 "/>
   <path class="fil0" d="M669.21 728.53l0 -373.98c-7.26,2.86 -15.18,4.42 -23.45,4.42 -35.29,0 -63.92,-28.5 -64.15,-63.73l-166.38 -73.61 -125.56 76.31 341.1 203.81 0 104.97 -186.57 101.3 0 139.95 177.32 -94.11 47.71 -25.32z"/>
   <path class="fil0" d="M384.48 706.11l-181.31 -90.93c-8.26,3.87 -17.47,6.04 -27.19,6.04 -30.99,0 -56.86,-21.98 -62.85,-51.2l-113.13 -56.74 0 130.62 207.17 109.96 177.32 94.11 0 -141.85z"/>
  </g>
 </g>
</svg>
