<?xml version="1.0" encoding="UTF-8"?>
<!DOCTYPE svg PUBLIC "-//W3C//DTD SVG 1.1//EN" "http://www.w3.org/Graphics/SVG/1.1/DTD/svg11.dtd">
<!-- Creator: CorelDRAW (Versão de avaliação) -->
<svg xmlns="http://www.w3.org/2000/svg" xml:space="preserve" width="55.9001mm" height="57.2021mm" version="1.1" style="shape-rendering:geometricPrecision; text-rendering:geometricPrecision; image-rendering:optimizeQuality; fill-rule:evenodd; clip-rule:evenodd"
viewBox="0 0 600.8 614.79"
 xmlns:xlink="http://www.w3.org/1999/xlink"
 xmlns:xodm="http://www.corel.com/coreldraw/odm/2003">
 <defs>
  <style type="text/css">
   <![CDATA[
    .fil0 {fill:url(#id0)}
   ]]>
  </style>
  <radialGradient id="id0" gradientUnits="objectBoundingBox" cx="74%" cy="23.0001%" r="33.9999%" fx="74%" fy="23.0001%">
   <stop offset="0" style="stop-opacity:1; stop-color:#008FDF"/>
   <stop offset="1" style="stop-opacity:1; stop-color:#363894"/>
  </radialGradient>
 </defs>
 <g id="Layer_x0020_1">
  <metadata id="CorelCorpID_0Corel-Layer"/>
  <g id="_727123520">
   <path class="fil0" d="M242.72 345.67l-24.42 24.42 -142.46 -83.97 0 -178.42 -75.84 40.25 0 159.44 0 20.21 97.22 41.03c8.15,-7.03 18.76,-11.28 30.37,-11.28 2.27,0 4.5,0.17 6.69,0.48 21.87,2.62 38.94,20.84 39.77,43.22l125.71 53.05 91.04 -55.33 -247.3 -147.77 0 -76.11 135.27 -73.44 0 -101.47 -128.56 68.23 -44.15 23.43 0 169.84 136.67 84.16z"/>
   <path class="fil0" d="M322.04 102.99l128.04 67.89c5.57,-2.35 11.68,-3.66 18.11,-3.66 22.59,0 41.41,16.1 45.63,37.45l86.98 46.12 0 -102.85 -150.2 -79.72 -128.56 -68.23 0 102.99z"/>
   <polygon class="fil0" points="519.1,257.16 519.1,510.21 600.8,466.84 600.8,307.4 600.8,293.31 "/>
   <path class="fil0" d="M485.19 528.2l0 -271.14c-5.27,2.07 -11,3.21 -17,3.21 -25.59,0 -46.35,-20.66 -46.51,-46.21l-120.63 -53.37 -91.04 55.33 247.3 147.77 0 76.11 -135.27 73.44 0 101.47 128.56 -68.23 34.59 -18.36z"/>
   <path class="fil0" d="M278.76 511.95l-131.45 -65.93c-5.99,2.81 -12.67,4.38 -19.72,4.38 -22.47,0 -41.22,-15.93 -45.57,-37.12l-82.02 -41.14 0 94.7 150.2 79.72 128.56 68.23 0 -102.85z"/>
  </g>
 </g>
</svg>
